<mxfile host="65bd71144e">
    <diagram id="70-7ZJfnB7ErdOLxz1qv" name="Page-1">
        <mxGraphModel dx="1235" dy="707" grid="1" gridSize="10" guides="1" tooltips="1" connect="1" arrows="1" fold="1" page="1" pageScale="1" pageWidth="827" pageHeight="1169" math="0" shadow="0">
            <root>
                <mxCell id="0"/>
                <mxCell id="1" parent="0"/>
                <mxCell id="4" style="edgeStyle=none;html=1;entryX=0.5;entryY=0;entryDx=0;entryDy=0;" parent="1" source="2" target="3" edge="1">
                    <mxGeometry relative="1" as="geometry"/>
                </mxCell>
                <mxCell id="2" value="Original&amp;nbsp;&lt;br&gt;Stream$" style="rounded=0;whiteSpace=wrap;html=1;fillColor=#336600;strokeColor=none;fontColor=#FFFFFF;fontStyle=0" parent="1" vertex="1">
                    <mxGeometry x="250" y="80" width="120" height="60" as="geometry"/>
                </mxCell>
                <mxCell id="7" style="edgeStyle=none;html=1;exitX=0.5;exitY=1;exitDx=0;exitDy=0;entryX=0.911;entryY=-0.008;entryDx=0;entryDy=0;entryPerimeter=0;" parent="1" source="3" target="6" edge="1">
                    <mxGeometry relative="1" as="geometry"/>
                </mxCell>
                <mxCell id="3" value="Process Utils&lt;br&gt;... simply typed functions" style="rounded=0;whiteSpace=wrap;html=1;" parent="1" vertex="1">
                    <mxGeometry x="200" y="200" width="220" height="60" as="geometry"/>
                </mxCell>
                <mxCell id="9" style="edgeStyle=none;html=1;exitX=0.5;exitY=1;exitDx=0;exitDy=0;" parent="1" source="5" target="8" edge="1">
                    <mxGeometry relative="1" as="geometry"/>
                </mxCell>
                <mxCell id="5" value="Original&amp;nbsp;&lt;br&gt;Stream Payload" style="rounded=0;whiteSpace=wrap;html=1;fillColor=#336600;strokeColor=none;fontColor=#FFFFFF;fontStyle=0" parent="1" vertex="1">
                    <mxGeometry x="250" y="350" width="120" height="60" as="geometry"/>
                </mxCell>
                <mxCell id="13" style="edgeStyle=none;html=1;exitX=1;exitY=0.5;exitDx=0;exitDy=0;entryX=0.25;entryY=1;entryDx=0;entryDy=0;" parent="1" source="8" target="12" edge="1">
                    <mxGeometry relative="1" as="geometry">
                        <Array as="points">
                            <mxPoint x="458" y="500"/>
                        </Array>
                    </mxGeometry>
                </mxCell>
                <mxCell id="8" value="Process&amp;lt;OriginalStream$ | Error&amp;gt;()" style="rounded=1;whiteSpace=wrap;html=1;" parent="1" vertex="1">
                    <mxGeometry x="220" y="470" width="180" height="60" as="geometry"/>
                </mxCell>
                <mxCell id="10" value="View" style="ellipse;whiteSpace=wrap;html=1;fillColor=#663300;strokeColor=none;fontColor=#FFFFFF;fontStyle=0" parent="1" vertex="1">
                    <mxGeometry x="630" y="430" width="120" height="120" as="geometry"/>
                </mxCell>
                <mxCell id="11" value="Service" style="ellipse;whiteSpace=wrap;html=1;" parent="1" vertex="1">
                    <mxGeometry x="170" y="65" width="90" height="90" as="geometry"/>
                </mxCell>
                <mxCell id="14" style="edgeStyle=none;html=1;entryX=0;entryY=0;entryDx=0;entryDy=0;" parent="1" source="12" target="10" edge="1">
                    <mxGeometry relative="1" as="geometry">
                        <Array as="points">
                            <mxPoint x="610" y="430"/>
                        </Array>
                    </mxGeometry>
                </mxCell>
                <mxCell id="12" value="mapProcessToViewItem" style="rounded=0;whiteSpace=wrap;html=1;fillColor=#660066;strokeColor=none;fontColor=#FFFFFF;fontStyle=0" parent="1" vertex="1">
                    <mxGeometry x="420" y="400" width="150" height="60" as="geometry"/>
                </mxCell>
                <mxCell id="15" value="hadError" style="rounded=1;whiteSpace=wrap;html=1;" parent="1" vertex="1">
                    <mxGeometry x="450" y="490" width="120" height="40" as="geometry"/>
                </mxCell>
                <mxCell id="16" value="isRunning" style="rounded=1;whiteSpace=wrap;html=1;" parent="1" vertex="1">
                    <mxGeometry x="450" y="530" width="120" height="40" as="geometry"/>
                </mxCell>
                <mxCell id="17" value="isCompleted" style="rounded=1;whiteSpace=wrap;html=1;" parent="1" vertex="1">
                    <mxGeometry x="450" y="570" width="120" height="40" as="geometry"/>
                </mxCell>
                <mxCell id="18" value="Idle" style="rounded=1;whiteSpace=wrap;html=1;" parent="1" vertex="1">
                    <mxGeometry x="450" y="610" width="120" height="40" as="geometry"/>
                </mxCell>
                <mxCell id="6" value="Decorated with&lt;br&gt;Process Meta Information" style="rounded=0;whiteSpace=wrap;html=1;fillColor=#004C99;strokeColor=none;fontColor=#FFFFFF;fontStyle=0" parent="1" vertex="1">
                    <mxGeometry x="200" y="290" width="120" height="60" as="geometry"/>
                </mxCell>
                <mxCell id="19" value="Your Operator function transforming based on stream meta information" style="text;html=1;strokeColor=none;fillColor=none;align=center;verticalAlign=middle;whiteSpace=wrap;rounded=0;" parent="1" vertex="1">
                    <mxGeometry x="420" y="360" width="230" height="30" as="geometry"/>
                </mxCell>
                <mxCell id="20" value="Pattern to cover different process stream states." style="shape=parallelogram;perimeter=parallelogramPerimeter;whiteSpace=wrap;html=1;fixedSize=1;fillColor=#006666;strokeColor=none;fontColor=#FFFFFF;fontStyle=0" parent="1" vertex="1">
                    <mxGeometry x="560" y="80" width="210" height="85" as="geometry"/>
                </mxCell>
                <mxCell id="26" style="edgeStyle=none;html=1;" parent="1" source="21" target="25" edge="1">
                    <mxGeometry relative="1" as="geometry"/>
                </mxCell>
                <mxCell id="21" value="connectHttpProcess" style="rounded=0;whiteSpace=wrap;html=1;fillColor=#000066;strokeColor=none;fontColor=#FFFFFF;fontStyle=0" parent="1" vertex="1">
                    <mxGeometry x="1020" y="145" width="190" height="40" as="geometry"/>
                </mxCell>
                <mxCell id="23" style="edgeStyle=none;html=1;" parent="1" source="22" target="21" edge="1">
                    <mxGeometry relative="1" as="geometry"/>
                </mxCell>
                <mxCell id="22" value="HttpEvents" style="rounded=0;whiteSpace=wrap;html=1;fillColor=#336600;strokeColor=none;fontColor=#FFFFFF;fontStyle=0" parent="1" vertex="1">
                    <mxGeometry x="860" y="150" width="120" height="30" as="geometry"/>
                </mxCell>
                <mxCell id="24" value="isRunning&lt;br&gt;isCompleted&lt;br&gt;hadError" style="rounded=0;whiteSpace=wrap;html=1;fillColor=#004C99;strokeColor=none;fontColor=#FFFFFF;fontStyle=0" parent="1" vertex="1">
                    <mxGeometry x="1220" y="100" width="160" height="50" as="geometry"/>
                </mxCell>
                <mxCell id="28" style="edgeStyle=none;html=1;" parent="1" source="25" target="27" edge="1">
                    <mxGeometry relative="1" as="geometry"/>
                </mxCell>
                <mxCell id="25" value="HttpEvents" style="rounded=0;whiteSpace=wrap;html=1;fillColor=#336600;strokeColor=none;fontColor=#FFFFFF;fontStyle=0" parent="1" vertex="1">
                    <mxGeometry x="1240" y="150" width="120" height="30" as="geometry"/>
                </mxCell>
                <mxCell id="27" value="View" style="ellipse;whiteSpace=wrap;html=1;fillColor=#663300;strokeColor=none;fontColor=#FFFFFF;fontStyle=0" parent="1" vertex="1">
                    <mxGeometry x="1450" y="105" width="120" height="120" as="geometry"/>
                </mxCell>
                <mxCell id="29" value="Example" style="text;html=1;strokeColor=none;fillColor=none;align=center;verticalAlign=middle;whiteSpace=wrap;rounded=0;fontStyle=1" parent="1" vertex="1">
                    <mxGeometry x="810" y="50" width="170" height="30" as="geometry"/>
                </mxCell>
                <mxCell id="32" value="hasItems$" style="rounded=0;whiteSpace=wrap;html=1;fillColor=#330033;strokeColor=none;fontColor=#FFFFFF;fontStyle=0" parent="1" vertex="1">
                    <mxGeometry x="1300" y="210" width="140" height="40" as="geometry"/>
                </mxCell>
                <mxCell id="33" value="showError$" style="rounded=0;whiteSpace=wrap;html=1;fillColor=#330033;strokeColor=none;fontColor=#FFFFFF;fontStyle=0" parent="1" vertex="1">
                    <mxGeometry x="1300" y="250" width="140" height="40" as="geometry"/>
                </mxCell>
                <mxCell id="34" value="showLoadingSpinner$" style="rounded=0;whiteSpace=wrap;html=1;fillColor=#330033;strokeColor=none;fontColor=#FFFFFF;fontStyle=0" parent="1" vertex="1">
                    <mxGeometry x="1300" y="290" width="140" height="40" as="geometry"/>
                </mxCell>
                <mxCell id="35" value="blockUI$" style="rounded=0;whiteSpace=wrap;html=1;fillColor=#330033;strokeColor=none;fontColor=#FFFFFF;fontStyle=0" parent="1" vertex="1">
                    <mxGeometry x="1300" y="330" width="140" height="40" as="geometry"/>
                </mxCell>
            </root>
        </mxGraphModel>
    </diagram>
</mxfile>